<svg xmlns="http://www.w3.org/2000/svg" id="Laag_1" viewBox="0 0 338.2 129.1">
  <style>
    .st0{fill-rule:evenodd;clip-rule:evenodd;fill:#E2003B;} .st1{fill-rule:evenodd;clip-rule:evenodd;fill:#00519E;stroke:#00519E;stroke-width:0.216;stroke-miterlimit:2.6131;} .st2{fill-rule:evenodd;clip-rule:evenodd;fill:#00519E;} .st3{fill:#6B6C6E;}
  </style>
  <path d="M99.6 1.8s219.1 6.7 219.1 46.5c0 43.2-315.6 36.5-315.6 36.5s332.7 15 332.7-36.4C335.9 3.3 99.6 1.8 99.6 1.8z" class="st0"/>
  <path d="M3.3 20.5v42.6H25c9.2 0 20.1-2.1 20.1-12.2 0-5-3.4-8-10.3-9.2l-.3-.1V41l.3-.1c6.1-1.7 9-4.8 9-9.8 0-6.6-6.2-10.6-16.7-10.6H3.3zm13.2 16.8v-9.4H21c4.6 0 9.6.4 9.6 4.8 0 3.3-3.4 5-9.8 5h-4.3v-.4zm0 18.1V44.8h4.7c3.5 0 10.7 0 10.7 5.6 0 4.8-5.8 5.5-10.9 5.5h-4.6v-.5h.1z" class="st1"/>
  <path d="M175.5 63.6h-2.2v-7.4c0-.6 0-1.1-.1-1.6 0-.5-.1-.9-.3-1.2-.2-.3-.4-.6-.8-.8-.3-.2-.8-.3-1.4-.3-.6 0-1.2.2-1.8.5-.6.3-1.2.7-1.8 1.2 0 .2 0 .4.1.6v9H165v-7.4c0-.6 0-1.1-.1-1.6 0-.5-.1-.9-.3-1.2-.2-.3-.4-.6-.8-.7-.3-.2-.8-.3-1.4-.3-.6 0-1.2.1-1.8.4-.6.3-1.2.7-1.8 1.1v9.7h-2.2v-13h2.2V52c.7-.6 1.4-1 2-1.3.7-.3 1.4-.5 2.2-.5.9 0 1.6.2 2.2.6.6.4 1.1.9 1.4 1.5.9-.7 1.7-1.3 2.4-1.6.7-.3 1.5-.5 2.3-.5 1.4 0 2.5.4 3.1 1.3.7.9 1 2.1 1 3.6v8.5h.1zm17.4-6.3h-9.5c0 .8.1 1.5.4 2.1.2.6.6 1.1 1 1.4.4.4.9.7 1.4.8.6.2 1.2.3 1.8.3.9 0 1.8-.2 2.7-.5.9-.4 1.5-.7 1.9-1h.1v2.4c-.7.3-1.5.6-2.3.8-.8.2-1.6.3-2.4.3-2.2 0-3.8-.6-5-1.7-1.2-1.2-1.8-2.8-1.8-5 0-2.1.6-3.8 1.7-5 1.2-1.2 2.7-1.9 4.6-1.9 1.7 0 3.1.5 4 1.5.9 1 1.4 2.5 1.4 4.4v1.1zm-2.1-1.6c0-1.1-.3-2-.9-2.7-.6-.6-1.4-.9-2.6-.9-1.2 0-2.1.3-2.8 1-.7.7-1.1 1.5-1.2 2.6h7.5zm18.3 7.9H207v-1.4c-.6.5-1.3 1-2 1.3-.7.3-1.4.5-2.2.5-1.5 0-2.8-.6-3.7-1.8-.9-1.2-1.4-2.8-1.4-5 0-1.1.2-2.1.5-2.9.3-.9.7-1.6 1.3-2.2.5-.6 1.1-1 1.8-1.3.7-.3 1.4-.5 2.2-.5.7 0 1.3.1 1.8.2s1.1.4 1.7.7v-5.6h2.2v18h-.1zm-2.1-3.2V53c-.6-.3-1.1-.4-1.6-.5-.5-.1-1-.2-1.5-.2-1.2 0-2.2.4-2.9 1.3-.7.9-1 2.1-1 3.6s.3 2.7.8 3.5c.5.8 1.4 1.2 2.5 1.2.6 0 1.2-.1 1.9-.4.6-.3 1.2-.7 1.8-1.1zm8.7-14.2h2.5v2.3h-2.5v-2.3zm.1 4.4h2.2v13h-2.2v-13zm18.5 12.2c-.7.3-1.4.6-2.1.8-.6.2-1.3.3-2.1.3-.9 0-1.8-.1-2.6-.4-.8-.3-1.5-.7-2-1.3-.6-.6-1-1.3-1.3-2.1-.3-.8-.5-1.8-.5-3 0-2.1.6-3.8 1.7-5 1.2-1.2 2.7-1.8 4.6-1.8.7 0 1.5.1 2.2.3.7.2 1.4.5 2 .8v2.4h-.1c-.7-.5-1.3-.9-2.1-1.2-.7-.3-1.4-.4-2.1-.4-1.2 0-2.2.4-2.9 1.3-.7.8-1.1 2-1.1 3.7 0 1.6.3 2.8 1 3.6.7.8 1.7 1.2 3 1.2.4 0 .9-.1 1.3-.2.5-.1.9-.3 1.2-.5.3-.2.6-.3.9-.5.3-.2.5-.3.7-.5h.1v2.5h.2zm15.2.8h-2.2v-1.4c-.2.1-.5.3-.8.6-.3.2-.6.4-1 .6-.4.2-.8.3-1.3.4-.5.1-1 .2-1.7.2-1.2 0-2.2-.4-3-1.2-.8-.8-1.2-1.8-1.2-3 0-1 .2-1.8.6-2.4.4-.6 1-1.1 1.8-1.4.8-.3 1.7-.6 2.8-.7 1.1-.1 2.3-.2 3.6-.3v-.3c0-.5-.1-.9-.3-1.2-.2-.3-.4-.6-.7-.8-.3-.2-.7-.3-1.1-.4-.4-.1-.9-.1-1.4-.1-.6 0-1.2.1-1.9.2s-1.4.4-2.2.6h-.1v-2.2c.4-.1 1-.2 1.8-.4.8-.1 1.6-.2 2.4-.2.9 0 1.7.1 2.4.2.7.2 1.3.4 1.8.8s.9.8 1.1 1.4c.3.6.4 1.3.4 2.1v8.9h.2zm-2.1-3.2v-3.6c-.7 0-1.4.1-2.4.2-.9.1-1.6.2-2.1.3-.6.2-1.1.5-1.5.8-.4.4-.6.9-.6 1.5 0 .7.2 1.3.7 1.7.4.4 1.1.6 2 .6.8 0 1.5-.1 2.1-.4.6-.3 1.2-.7 1.8-1.1zm8.7-14.9h2.2v18.1h-2.2V45.5z" class="st2"/>
  <path d="M51.8 32.7c0 8.9 8.1 10.9 15.2 12.7 5.2 1.3 9.7 2.4 9.7 6.1 0 4.6-6.8 4.6-9.1 4.6-5.1 0-10-1-14.1-2.7-.1.9-1 8-1.1 8.7 4.3 1.1 10 1.8 15.2 1.8 10.4 0 22.7-2.4 22.7-13.9 0-9.1-8.7-11.1-15.8-12.7-4.9-1.1-9.1-2.1-9.1-5.3 0-4.5 7.1-4.5 9.8-4.5 4.1 0 7.9.7 11.3 1.9.1-.9.8-7.5.8-8.1-3.5-1-8.4-1.5-13.1-1.5-6.6 0-22.4 1.3-22.4 12.9zm83.3-12.2c0 .8.2 29.5.2 29.5h-.8S117 20.9 116.7 20.5H99.5v42.6h12.1c0-.8-.5-29.7-.5-29.7h.8s18.1 29.3 18.4 29.7h16.8V20.5h-12z" class="st1"/>
  <path d="M3.9 114.1c.1-2.8 2.1-4 4.8-4 2.1 0 4.4.6 4.4 3.8v6.3c0 .6.3.9.9.9.2 0 .3 0 .5-.1v1.2c-.3.1-.6.1-.9.1-1.5 0-1.7-.8-1.7-2.1-1 1.5-2 2.4-4.3 2.4-2.2 0-4-1.1-4-3.5 0-3.3 3.2-3.4 6.4-3.8 1.2-.1 1.9-.3 1.9-1.6 0-2-1.4-2.4-3.1-2.4-1.8 0-3.1.8-3.2 2.8H3.9zm7.7 1.8c-.2.3-.9.5-1.3.5-2.5.4-5.5.4-5.5 2.7 0 1.4 1.3 2.3 2.6 2.3 2.2 0 4.2-1.4 4.1-3.7v-1.8zm4.7-5.4h1.4v2c.5-1.4 2.1-2.4 3.8-2.4 3.3 0 4.3 1.7 4.3 4.6v7.6h-1.4V115c0-2-.7-3.6-3-3.6s-3.7 1.7-3.7 4.1v6.9h-1.4v-11.9zm19.8-4.6h11.3v1.3h-9.8v5.9h9.1v1.3h-9.1v6.5h9.9v1.3H36.1v-16.3zm20.8 8.1c-.1-1.8-1.4-2.6-3.1-2.6-1.3 0-2.8.5-2.8 2 0 1.3 1.5 1.7 2.5 2l1.9.4c1.7.3 3.4 1.2 3.4 3.3 0 2.6-2.6 3.6-4.8 3.6-2.8 0-4.6-1.3-4.9-4.2h1.4c.1 2 1.6 3 3.5 3 1.4 0 3.2-.6 3.2-2.3 0-1.4-1.3-1.8-2.6-2.2l-1.9-.4c-1.9-.5-3.3-1.1-3.3-3.2 0-2.4 2.4-3.3 4.5-3.3 2.4 0 4.3 1.2 4.3 3.8h-1.3zm11.5 0c-.1-1.8-1.4-2.6-3.1-2.6-1.3 0-2.8.5-2.8 2 0 1.3 1.5 1.7 2.5 2l1.9.4c1.7.3 3.4 1.2 3.4 3.3 0 2.6-2.6 3.6-4.8 3.6-2.8 0-4.6-1.3-4.9-4.2H62c.1 2 1.6 3 3.5 3 1.4 0 3.2-.6 3.2-2.3 0-1.4-1.3-1.8-2.6-2.2l-1.9-.4c-1.9-.5-3.3-1.1-3.3-3.2 0-2.4 2.4-3.3 4.5-3.3 2.4 0 4.3 1.2 4.3 3.8h-1.3zm4.3-8.1h1.4v2.3h-1.4v-2.3zm0 4.6h1.4v11.9h-1.4v-11.9zm7 0h2.4v1.2h-2.4v8c0 .9.1 1.5 1.2 1.6.4 0 .8 0 1.2-.1v1.2h-1.3c-1.9 0-2.6-.6-2.6-2.7v-8.1h-2.1v-1.2h2.1v-3.6h1.4v3.7zm3.5 0h1.5l3.9 10.1 3.7-10.1h1.4l-5.1 13.7c-.8 2-1.3 2.6-3.1 2.6-.6 0-.9 0-1.1-.1v-1.2c.3.1.7.1 1 .1 1.3 0 1.6-.8 2.1-1.9l.5-1.4-4.8-11.8zm27.5 3.7c-.4-1.8-1.5-2.8-3.4-2.8-2.8 0-4.2 2.5-4.2 5.1 0 2.5 1.4 5.1 4.2 5.1 1.8 0 3.3-1.4 3.4-3.4h1.4c-.4 2.8-2.3 4.6-4.9 4.6-3.6 0-5.6-2.9-5.6-6.3s2-6.3 5.6-6.3c2.5 0 4.5 1.4 4.8 4.1h-1.3zm14.6 2.2c0 3.4-2 6.3-5.6 6.3-3.6 0-5.6-2.9-5.6-6.3s2-6.3 5.6-6.3c3.6 0 5.6 2.9 5.6 6.3zm-9.8 0c0 2.5 1.4 5.1 4.2 5.1 2.8 0 4.2-2.5 4.2-5.1 0-2.5-1.4-5.1-4.2-5.1-2.8.1-4.2 2.6-4.2 5.1zm12.3-5.9h1.3v2h.1c.8-1.4 2-2.3 3.9-2.3 1.6 0 3 .8 3.4 2.3.7-1.6 2.2-2.3 3.8-2.3 2.6 0 3.9 1.4 3.9 4.2v8h-1.4v-8c0-2-.7-3-2.8-3-2.5 0-3.2 2.1-3.2 4.3v6.7h-1.4v-8c0-1.6-.6-2.9-2.5-2.9-2.5 0-3.5 1.9-3.5 4.4v6.6H128v-12zm19.6 0h1.3v2.3c.7-1.6 2.3-2.6 4.2-2.6 3.6 0 5.3 2.9 5.3 6.3s-1.7 6.3-5.3 6.3c-1.8 0-3.5-.9-4.1-2.6v6.6h-1.4v-16.3zm5.6.9c-3.2 0-4.2 2.4-4.2 5.1 0 2.5 1.1 5.1 4.2 5.1 2.8 0 3.9-2.6 3.9-5.1s-1.2-5.1-3.9-5.1zm7.8 2.7c.1-2.8 2.1-4 4.8-4 2.1 0 4.4.6 4.4 3.8v6.3c0 .6.3.9.8.9.2 0 .3 0 .5-.1v1.2c-.3.1-.6.1-.9.1-1.5 0-1.7-.8-1.7-2.1-1 1.5-2 2.4-4.3 2.4-2.2 0-4-1.1-4-3.5 0-3.3 3.2-3.4 6.4-3.8 1.2-.1 1.9-.3 1.9-1.6 0-2-1.4-2.4-3.1-2.4-1.8 0-3.1.8-3.2 2.8h-1.6zm7.7 1.8c-.2.3-.9.5-1.3.5-2.5.4-5.5.4-5.5 2.7 0 1.4 1.3 2.3 2.6 2.3 2.2 0 4.2-1.4 4.1-3.7v-1.8zm4.7-5.4h1.4v2c.5-1.4 2.1-2.4 3.8-2.4 3.3 0 4.3 1.7 4.3 4.6v7.6h-1.4V115c0-2-.7-3.6-3-3.6s-3.7 1.7-3.7 4.1v6.9h-1.4v-11.9zm11.4 0h1.5l3.9 10.1 3.7-10.1h1.4l-5.1 13.7c-.8 2-1.3 2.6-3.1 2.6-.6 0-.9 0-1.1-.1v-1.2c.3.1.7.1 1 .1 1.3 0 1.6-.8 2.1-1.9l.5-1.4-4.8-11.8z" class="st3"/>
</svg>
