<?xml version="1.0" encoding="utf-8"?>
<!-- Generator: Adobe Illustrator 16.0.0, SVG Export Plug-In . SVG Version: 6.00 Build 0)  -->
<!DOCTYPE svg PUBLIC "-//W3C//DTD SVG 1.1//EN" "http://www.w3.org/Graphics/SVG/1.1/DTD/svg11.dtd">
<svg version="1.1" id="Layer_1" xmlns="http://www.w3.org/2000/svg" xmlns:xlink="http://www.w3.org/1999/xlink" x="0px" y="0px"
	 width="284px" height="283.333px" viewBox="0 0 284 283.333" enable-background="new 0 0 284 283.333" xml:space="preserve">
<g>
	<g>
		<defs>
			<rect id="SVGID_1_" x="4" y="5" width="275.576" height="275.577"/>
		</defs>
		<clipPath id="SVGID_2_">
			<use xlink:href="#SVGID_1_"  overflow="visible"/>
		</clipPath>
		<path clip-path="url(#SVGID_2_)" fill="none" stroke="#FFFFFF" stroke-width="8.9739" d="M279.257,9.486
			c-149.542,0-270.77,121.229-270.77,270.77"/>
		<path clip-path="url(#SVGID_2_)" fill="none" stroke="#3B5CAD" stroke-width="3.6545" d="M279.576,9.805
			C130.034,9.805,8.806,131.033,8.806,280.577"/>
	</g>
	<path fill="#3B5CAD" d="M239.909,63.668c9.535,3.552,17.199,11.684,17.105,23.181c-0.187,4.487-3.085,9.207-5.89,12.666
		c2.337,0.701,6.918,0.258,6.918,0.258l-0.132,102.15c-14.263,0.375-28.518-0.287-42.204,0.086
		c0.132,7.805-0.102,13.648,0.015,21.125h-50.482c0.093-7.01-0.015-14.098-0.109-21.107l-66.272-0.018
		c-3.599,5.469-7.805,11.076-13.834,14.77c-9.861,7.057-22.948,7.057-35.613,7.385v-0.281l-11.124-1.402
		c-4.58-0.279-14.208-2.523-14.769-3.363v-44.4l7.665,1.027l9.161,1.309c3.271,0.514,10.282,2.852,9.721,0
		c-1.542-2.523-12.899-11.684-17.479-19.162c-1.589-2.338-2.991-5.328-4.767-9.066c-4.113-15.05,0.374-31.034,10.469-41.129
		c4.487-4.207,10.095-6.636,16.171-8.413c3.178-1.168,6.45-1.168,11.124-1.683h10.375l15.689,1.028
		c0.802,0.188-2.229,7.432,0.809,5.328c12.151-5.375,26.968-7.197,40.054-6.636c5.982,1.028,9.487,1.729,14.862,5.047
		c9.067-1.402,16.077-4.86,26.172-4.767c0.936,0,3.366-0.56,4.395,0c4.954,0.28,8.318,1.402,12.806,2.43
		c0.373,0.935,1.775,0.935,2.71,1.309c4.206,1.589,8.249,4.673,11.802,7.758c0.467-3.973-0.397-9.815-0.397-9.815
		s2.57,0.233,4.768-0.016c-2.523-4.393-5.516-9.425-4.768-15.408c1.401-10.983,8.6-17.386,17.2-19.91
		C227.384,62.546,233.927,61.144,239.909,63.668L239.909,63.668z"/>
	<path fill="none" stroke="#FFFFFF" stroke-width="2.8042" d="M239.909,63.668c9.535,3.552,17.199,11.684,17.105,23.181
		c-0.187,4.487-3.085,9.207-5.89,12.666c2.337,0.701,6.918,0.258,6.918,0.258l-0.132,102.15
		c-14.263,0.375-28.518-0.287-42.204,0.086c0.132,7.805-0.102,13.648,0.015,21.125h-50.482c0.093-7.01-0.015-14.098-0.109-21.107
		l-66.272-0.018c-3.599,5.469-7.805,11.076-13.834,14.77c-9.861,7.057-22.948,7.057-35.613,7.385v-0.281l-11.124-1.402
		c-4.58-0.279-14.208-2.523-14.769-3.363v-44.4l7.665,1.027l9.161,1.309c3.271,0.514,10.282,2.852,9.721,0
		c-1.542-2.523-12.899-11.684-17.479-19.162c-1.589-2.338-2.991-5.328-4.767-9.066c-4.113-15.05,0.374-31.034,10.469-41.129
		c4.487-4.207,10.095-6.636,16.171-8.413c3.178-1.168,6.45-1.168,11.124-1.683h10.375l15.689,1.028
		c0.802,0.188-2.229,7.432,0.809,5.328c12.151-5.375,26.968-7.197,40.054-6.636c5.982,1.028,9.487,1.729,14.862,5.047
		c9.067-1.402,16.077-4.86,26.172-4.767c0.936,0,3.366-0.56,4.395,0c4.954,0.28,8.318,1.402,12.806,2.43
		c0.373,0.935,1.775,0.935,2.71,1.309c4.206,1.589,8.249,4.673,11.802,7.758c0.467-3.973-0.397-9.815-0.397-9.815
		s2.57,0.233,4.768-0.016c-2.523-4.393-5.516-9.425-4.768-15.408c1.401-10.983,8.6-17.386,17.2-19.91
		C227.384,62.546,233.927,61.144,239.909,63.668L239.909,63.668z"/>
	<path fill="#FFFFFF" d="M236.676,72.844c3.553,1.776,7.627,4.378,9.216,8.677c1.963,3.973,0.28,6.73-0.28,9.722
		c-1.262,1.963-0.795,2.196-4.769,5.188c-1.635,1.449-3.505,2.384-6.355,2.571h-8.038c-1.964-0.187-4.393-0.708-5.796-2.205
		c-3.879-3.124-6.45-6.769-5.982-11.91c0.654-6.45,5.048-10.002,10.096-12.151c1.775-0.842,3.691-0.795,5.981-1.029
		C232.664,71.239,234.666,71.909,236.676,72.844L236.676,72.844z"/>
	<path fill="#FFFFFF" d="M77.686,108.068c1.916,0.327,3.552,0.56,3.552,0.56l0.187,24.023c-4.954,0.748-11.591-0.841-13.18,4.674
		c0.935,5.234,6.449,6.542,9.066,10.468c8.413,6.543,14.38,20.004,17.091,26.266l0.109-58.233c9.44-3.926,19.069-7.478,30.939-7.385
		c6.357-0.093,12.806,0.562,19.256,3.646c2.337,1.028,4.487,3.552,7.384,2.057c8.975-4.674,20.846-6.637,32.623-4.768
		c4.02,1.496,7.945,2.337,12.151,5.422c4.954,3.832,7.478,9.067,9.348,14.769v83.846h-29.943
		c-0.218-4.299,0.109-51.738-0.077-74.686c-0.467-2.056-3.046-3.646-4.821-3.926c-2.057,0-4.792,1.029-5.819,3.272v53.842
		c-10.235,0.373-20.984,0.139-30.924,0l0.007-54.215c-1.308-2.243-1.854-3.132-5.312-3.365c-2.516,0-3.918,0.701-5.18,2.602
		l-0.109,54.979H94.246c-0.156-2.664-0.156-4.77-0.366-7.76c-0.725,2.291-0.725,3.691-1.706,5.703
		c-2.804,12.057-13.18,20.564-24.21,23.182c-5.188,1.682-9.908,2.148-15.891,1.682c-3.318-0.234-7.197-0.936-10.75-1.309
		c-2.617-0.561-4.783-0.795-6.605-1.309c-0.016-8.834,0.016-17.48,0.397-25.984c8.88,1.588,19.715,4.064,26.772-2.338
		c2.524-3.879,0.841-8.133-1.402-11.123c-1.682-1.59-2.851-2.572-5.047-4.674c-6.356-7.104-13.273-13.928-16.077-23.275
		c-1.963-7.01-2.43-15.891,1.682-21.873C48.522,110.872,62.823,106.946,77.686,108.068L77.686,108.068z"/>
	<path fill="#FFFFFF" d="M246.919,192.194h-30.683c-0.163-26.779,0.079-54.308-0.016-81.416h30.698V192.194L246.919,192.194z"/>
	<path fill="#FFFFFF" d="M236.915,72.773c3.551,1.776,7.626,4.378,9.215,8.677c1.962,3.973,0.281,6.73-0.28,9.722
		c-1.263,1.962-0.796,2.196-4.768,5.188c-1.636,1.449-3.506,2.383-6.355,2.571h-8.039c-1.963-0.188-4.394-0.708-5.795-2.205
		c-3.881-3.124-6.45-6.769-5.983-11.91c0.654-6.45,5.048-10.002,10.095-12.151c1.776-0.842,3.692-0.795,5.983-1.029
		C232.903,71.168,234.905,71.839,236.915,72.773L236.915,72.773z"/>
	<path fill="#FFFFFF" d="M77.924,107.998c1.916,0.326,3.552,0.56,3.552,0.56l0.187,24.023c-4.954,0.748-11.591-0.842-13.18,4.674
		c0.935,5.234,6.45,6.542,9.066,10.468c8.413,6.543,14.38,20.004,17.09,26.268l0.109-58.235c9.44-3.926,19.069-7.478,30.939-7.385
		c6.356-0.093,12.805,0.561,19.255,3.646c2.337,1.028,4.487,3.552,7.384,2.057c8.974-4.674,20.846-6.638,32.623-4.768
		c4.019,1.496,7.945,2.337,12.151,5.422c4.954,3.832,7.478,9.066,9.348,14.769v83.845h-29.944
		c-0.217-4.301,0.111-51.738-0.076-74.685c-0.468-2.057-3.046-3.646-4.821-3.926c-2.058,0-4.791,1.029-5.819,3.271v53.842
		c-10.236,0.373-20.985,0.139-30.924,0l0.008-54.215c-1.309-2.244-1.854-3.132-5.313-3.366c-2.516,0-3.918,0.702-5.18,2.603
		l-0.108,54.978H94.484c-0.156-2.666-0.156-4.768-0.366-7.76c-0.725,2.291-0.725,3.693-1.706,5.703
		c-2.804,12.057-13.18,20.563-24.21,23.18c-5.188,1.684-9.908,2.15-15.891,1.684c-3.318-0.234-7.197-0.936-10.75-1.309
		c-2.617-0.561-4.783-0.795-6.605-1.309c-0.016-8.834,0.016-17.48,0.397-25.986c8.88,1.59,19.715,4.066,26.772-2.336
		c2.524-3.879,0.841-8.133-1.402-11.123c-1.682-1.59-2.851-2.572-5.047-4.674c-6.356-7.105-13.273-13.928-16.077-23.275
		c-1.963-7.01-2.43-15.89,1.682-21.873C48.76,110.802,63.062,106.876,77.924,107.998L77.924,107.998z"/>
	<path fill="#FFFFFF" d="M247.157,192.124h-30.683c-0.163-26.781,0.078-54.309-0.016-81.416h30.698V192.124L247.157,192.124z"/>
	<g>
		<path fill="#3B5CAD" d="M31.746,240.584l1.244,6.377c0.319,1.627,0.638,3.35,0.893,5.135h0.063
			c0.319-1.785,0.766-3.572,1.148-5.102l1.658-6.41h3.827l1.563,6.219c0.415,1.754,0.829,3.508,1.148,5.293h0.064
			c0.223-1.785,0.542-3.539,0.893-5.326l1.34-6.186h4.751l-4.784,15.594h-4.561l-1.467-5.484c-0.383-1.531-0.669-2.934-0.989-4.848
			h-0.063c-0.287,1.945-0.606,3.381-1.021,4.848l-1.563,5.484h-4.56l-4.529-15.594H31.746z"/>
		<path fill="#3B5CAD" d="M56.56,240.584l1.244,6.377c0.319,1.627,0.638,3.35,0.893,5.135h0.063
			c0.319-1.785,0.766-3.572,1.148-5.102l1.658-6.41h3.827l1.563,6.219c0.415,1.754,0.829,3.508,1.148,5.293h0.064
			c0.223-1.785,0.542-3.539,0.893-5.326l1.339-6.186h4.752l-4.784,15.594h-4.56l-1.467-5.484c-0.383-1.531-0.669-2.934-0.989-4.848
			h-0.063c-0.287,1.945-0.606,3.381-1.021,4.848l-1.563,5.484h-4.561l-4.529-15.594H56.56z"/>
		<path fill="#3B5CAD" d="M81.374,240.584l1.244,6.377c0.319,1.627,0.638,3.35,0.893,5.135h0.063
			c0.319-1.785,0.766-3.572,1.148-5.102l1.658-6.41h3.827l1.563,6.219c0.415,1.754,0.829,3.508,1.148,5.293h0.064
			c0.223-1.785,0.542-3.539,0.893-5.326l1.339-6.186h4.752l-4.784,15.594h-4.56l-1.467-5.484c-0.383-1.531-0.669-2.934-0.989-4.848
			h-0.063c-0.287,1.945-0.606,3.381-1.021,4.848l-1.563,5.484h-4.561l-4.529-15.594H81.374z"/>
	</g>
	<g>
		<path fill="#3B5CAD" d="M100.352,253.596c0-1.723,1.18-2.967,2.87-2.967c1.69,0,2.838,1.213,2.838,2.967
			c0,1.689-1.148,2.934-2.871,2.934C101.531,256.53,100.352,255.286,100.352,253.596z"/>
		<path fill="#3B5CAD" d="M108.963,251.938c0.893,0.541,2.743,1.18,4.178,1.18c1.467,0,2.073-0.512,2.073-1.309
			s-0.479-1.18-2.296-1.785c-3.221-1.084-4.464-2.838-4.433-4.688c0-2.902,2.487-5.104,6.346-5.104c1.818,0,3.444,0.414,4.401,0.893
			l-0.861,3.35c-0.702-0.383-2.041-0.893-3.38-0.893c-1.18,0-1.85,0.479-1.85,1.275c0,0.732,0.606,1.115,2.519,1.785
			c2.966,1.021,4.21,2.52,4.242,4.816c0,2.902-2.296,5.039-6.761,5.039c-2.041,0-3.859-0.447-5.039-1.086L108.963,251.938z"/>
		<path fill="#3B5CAD" d="M137.538,251.172c0,2.041,0.064,3.699,0.127,5.006h-4.209l-0.223-2.199h-0.096
			c-0.606,0.955-2.073,2.551-4.879,2.551c-3.157,0-5.485-1.977-5.485-6.793v-9.152h4.879v8.387c0,2.264,0.733,3.635,2.424,3.635
			c1.339,0,2.105-0.924,2.424-1.689c0.127-0.287,0.159-0.67,0.159-1.053v-9.279h4.879V251.172z"/>
		<path fill="#3B5CAD" d="M146.853,236.12v4.465h3.477v3.572h-3.477v5.645c0,1.881,0.446,2.742,1.913,2.742
			c0.606,0,1.085-0.064,1.436-0.127l0.032,3.666c-0.638,0.256-1.786,0.416-3.157,0.416c-1.563,0-2.87-0.543-3.636-1.34
			c-0.893-0.926-1.34-2.424-1.34-4.625v-6.377h-2.073v-3.572h2.073v-3.381L146.853,236.12z"/>
		<path fill="#3B5CAD" d="M167.838,251.172c0,2.041,0.063,3.699,0.127,5.006h-4.209l-0.224-2.199h-0.096
			c-0.605,0.955-2.073,2.551-4.879,2.551c-3.157,0-5.485-1.977-5.485-6.793v-9.152h4.879v8.387c0,2.264,0.733,3.635,2.424,3.635
			c1.34,0,2.104-0.924,2.424-1.689c0.128-0.287,0.159-0.67,0.159-1.053v-9.279h4.88V251.172z"/>
		<path fill="#3B5CAD" d="M171.73,245.719c0-2.297-0.063-3.795-0.128-5.135h4.178l0.16,2.869h0.127
			c0.798-2.264,2.711-3.221,4.21-3.221c0.446,0,0.67,0,1.021,0.064v4.561c-0.351-0.064-0.766-0.129-1.308-0.129
			c-1.786,0-2.998,0.957-3.316,2.457c-0.064,0.318-0.096,0.701-0.096,1.084v7.908h-4.848V245.719z"/>
		<path fill="#3B5CAD" d="M187.582,249.928c0.159,2.01,2.137,2.965,4.4,2.965c1.659,0,2.998-0.223,4.306-0.637l0.638,3.285
			c-1.595,0.637-3.54,0.957-5.645,0.957c-5.294,0-8.323-3.063-8.323-7.941c0-3.955,2.455-8.324,7.877-8.324
			c5.038,0,6.952,3.924,6.952,7.781c0,0.83-0.096,1.563-0.159,1.914H187.582z M193.29,246.612c0-1.18-0.51-3.158-2.742-3.158
			c-2.041,0-2.87,1.85-2.998,3.158H193.29z"/>
		<path fill="#3B5CAD" d="M200.658,251.938c0.894,0.541,2.743,1.18,4.178,1.18c1.468,0,2.073-0.512,2.073-1.309
			s-0.479-1.18-2.296-1.785c-3.222-1.084-4.465-2.838-4.433-4.688c0-2.902,2.487-5.104,6.346-5.104c1.818,0,3.444,0.414,4.401,0.893
			l-0.861,3.35c-0.701-0.383-2.041-0.893-3.381-0.893c-1.18,0-1.85,0.479-1.85,1.275c0,0.732,0.606,1.115,2.52,1.785
			c2.966,1.021,4.21,2.52,4.241,4.816c0,2.902-2.296,5.039-6.761,5.039c-2.041,0-3.858-0.447-5.038-1.086L200.658,251.938z"/>
		<path fill="#3B5CAD" d="M214.183,253.596c0-1.723,1.18-2.967,2.87-2.967s2.838,1.213,2.838,2.967c0,1.689-1.147,2.934-2.87,2.934
			C215.362,256.53,214.183,255.286,214.183,253.596z"/>
		<path fill="#3B5CAD" d="M222.697,256.178c0.064-1.02,0.128-2.902,0.128-4.656v-17.986h4.848v8.898h0.063
			c0.925-1.34,2.552-2.201,4.72-2.201c3.731,0,6.474,3.094,6.442,7.877c0,5.613-3.572,8.42-7.144,8.42
			c-1.818,0-3.572-0.67-4.688-2.52h-0.063l-0.191,2.168H222.697z M227.673,249.545c0,0.318,0.031,0.605,0.096,0.861
			c0.318,1.307,1.435,2.295,2.838,2.295c2.073,0,3.349-1.594,3.349-4.4c0-2.424-1.084-4.336-3.349-4.336
			c-1.308,0-2.52,0.988-2.838,2.391c-0.064,0.287-0.096,0.574-0.096,0.893V249.545z"/>
	</g>
	<g>
		<path fill="#3B5CAD" d="M245.145,249.928c0.159,2.01,2.137,2.965,4.4,2.965c1.659,0,2.998-0.223,4.306-0.637l0.638,3.285
			c-1.595,0.637-3.54,0.957-5.645,0.957c-5.294,0-8.323-3.063-8.323-7.941c0-3.955,2.455-8.324,7.877-8.324
			c5.038,0,6.952,3.924,6.952,7.781c0,0.83-0.096,1.563-0.159,1.914H245.145z M250.853,246.612c0-1.18-0.51-3.158-2.742-3.158
			c-2.041,0-2.87,1.85-2.998,3.158H250.853z"/>
	</g>
</g>
</svg>
